<svg xmlns="http://www.w3.org/2000/svg" width="20.506" height="20" viewBox="0 0 20.506 20"><path d="M10.253,0A10.253,10.253,0,0,0,7.01,19.98c.513.09.7-.218.7-.487,0-.244-.013-1.051-.013-1.91-2.576.474-3.242-.628-3.448-1.2A3.728,3.728,0,0,0,3.2,14.931c-.359-.192-.871-.666-.013-.679A2.052,2.052,0,0,1,4.768,15.3a2.192,2.192,0,0,0,2.986.846,2.157,2.157,0,0,1,.654-1.371c-2.281-.256-4.665-1.141-4.665-5.062A3.99,3.99,0,0,1,4.793,6.959a3.684,3.684,0,0,1,.1-2.717s.859-.269,2.82,1.051a9.666,9.666,0,0,1,5.126,0c1.961-1.333,2.82-1.051,2.82-1.051a3.684,3.684,0,0,1,.1,2.717,3.967,3.967,0,0,1,1.051,2.755c0,3.935-2.4,4.806-4.678,5.062a2.428,2.428,0,0,1,.692,1.9c0,1.371-.013,2.474-.013,2.82,0,.269.192.59.7.487A10.258,10.258,0,0,0,10.253,0Z"/></svg>