<svg xmlns="http://www.w3.org/2000/svg" width="20" height="20.001" viewBox="0 0 20 20.001"><path d="M17.038,17.044H14.079V12.4c0-1.107-.023-2.529-1.547-2.529-1.543,0-1.778,1.2-1.778,2.448v4.723H7.793V7.5h2.845V8.8h.038a3.117,3.117,0,0,1,2.807-1.543c3,0,3.557,1.976,3.557,4.544v5.241ZM4.447,6.2A1.721,1.721,0,1,1,6.169,4.476,1.719,1.719,0,0,1,4.447,6.2ZM5.931,17.044H2.963V7.5H5.931ZM18.523,0H1.475A1.458,1.458,0,0,0,0,1.442V18.559A1.458,1.458,0,0,0,1.475,20H18.519A1.464,1.464,0,0,0,20,18.559V1.442A1.464,1.464,0,0,0,18.519,0Z"/></svg>