<svg xmlns="http://www.w3.org/2000/svg" xmlns:xlink="http://www.w3.org/1999/xlink" width="4.35" height="28.65" viewBox="0 0 4.35 28.65"><defs><clipPath id="a"><path d="M134.824,102.2h4.35v4.35h-4.35Zm0,0" transform="translate(-134.824 -102.199)"/></clipPath><clipPath id="b"><path d="M139.174,102.2h-4.35v4.35h4.35Zm0,0" transform="translate(-134.824 -102.199)"/></clipPath></defs><g transform="translate(500.675 -659.308) rotate(90)"><line x2="18.266" transform="translate(664.5 498.5)" fill="none" stroke="#000" stroke-width="0.5"/><g transform="translate(659.308 496.325)"><g clip-path="url(#a)"><path d="M137.018,102.2a2.182,2.182,0,1,0,.677,4.257.612.612,0,1,1,1.006-.688,2.182,2.182,0,0,0-1.683-3.569Zm0,3.518a1.336,1.336,0,1,1,1.337-1.336A1.338,1.338,0,0,1,137.018,105.717Zm0,0" transform="translate(-134.836 -102.199)" fill="#051d40"/></g><path d="M206.953,186.784a.358.358,0,0,1,.01.072.373.373,0,0,1,0,.073.367.367,0,0,1-.019.07.375.375,0,0,1-.076.123.374.374,0,0,1-.117.085.373.373,0,0,1-.069.024.391.391,0,0,1-.072.01.374.374,0,0,1-.208-.055.369.369,0,0,1-.106-.1.362.362,0,0,1-.037-.063.368.368,0,0,1-.024-.069.382.382,0,0,1-.01-.072.375.375,0,0,1,.023-.143.366.366,0,0,1,.076-.123.361.361,0,0,1,.054-.048.374.374,0,0,1,.063-.037.367.367,0,0,1,.069-.023.361.361,0,0,1,.072-.01.371.371,0,0,1,.351.216A.369.369,0,0,1,206.953,186.784Zm0,0" transform="translate(-203.264 -183.006)" fill="#051d40"/></g><g transform="translate(683.608 496.325)"><g clip-path="url(#b)"><path d="M137.017,102.2a2.182,2.182,0,1,1-.677,4.257.612.612,0,1,0-1.006-.688,2.182,2.182,0,0,1,1.683-3.569Zm0,3.518a1.336,1.336,0,1,0-1.337-1.336A1.338,1.338,0,0,0,137.017,105.717Zm0,0" transform="translate(-134.85 -102.199)" fill="#051d40"/></g><path d="M206.232,186.784a.359.359,0,0,0-.01.072.376.376,0,0,0,0,.073.368.368,0,0,0,.019.07.376.376,0,0,0,.076.123.366.366,0,0,0,.055.048.363.363,0,0,0,.063.037.374.374,0,0,0,.069.024.39.39,0,0,0,.072.01.373.373,0,0,0,.208-.055.369.369,0,0,0,.106-.1.362.362,0,0,0,.037-.063.368.368,0,0,0,.024-.069.385.385,0,0,0,.01-.072.376.376,0,0,0-.023-.143.372.372,0,0,0-.13-.171.374.374,0,0,0-.063-.037.367.367,0,0,0-.069-.023.361.361,0,0,0-.072-.01.371.371,0,0,0-.351.216A.37.37,0,0,0,206.232,186.784Zm0,0" transform="translate(-205.571 -183.006)" fill="#051d40"/></g></g></svg>