<svg xmlns="http://www.w3.org/2000/svg" xmlns:xlink="http://www.w3.org/1999/xlink" width="799.664" height="764" viewBox="0 0 799.664 764"><defs><clipPath id="a"><path d="M134.824,102.2H625.488V592.862H134.824Zm0,0" transform="translate(-134.824 -102.199)"/></clipPath></defs><g transform="translate(-4102.324 -500.5)" opacity="0.02"><g transform="translate(4102.324 500.5)" clip-path="url(#a)"><path d="M380.953,102.2c-135.718,0-246.117,110.4-246.117,246.117,0,135.736,110.4,246.135,246.117,246.135a247.442,247.442,0,0,0,76.375-12.1,69.061,69.061,0,1,1,113.483-77.594,245.271,245.271,0,0,0,56.165-156.325C626.976,212.6,516.577,102.2,380.953,102.2Zm0,396.821c-83.128,0-150.778-67.665-150.778-150.7,0-83.016,67.65-150.774,150.778-150.774,83.146,0,150.793,67.646,150.793,150.774C531.746,431.462,463.987,499.02,380.953,499.02Zm0,0" transform="translate(-134.779 -102.199)" fill="#051d40"/></g><path d="M288.752,218.707a40.45,40.45,0,0,1,1.094,8.122,42.161,42.161,0,0,1-.509,8.2,41.329,41.329,0,0,1-2.1,7.921,42.366,42.366,0,0,1-8.58,13.874,41.264,41.264,0,0,1-6.155,5.421,40.773,40.773,0,0,1-7.079,4.125,42.13,42.13,0,0,1-7.762,2.665,43.867,43.867,0,0,1-8.122,1.1,42.086,42.086,0,0,1-23.473-6.225,41.616,41.616,0,0,1-11.939-11.116,41.121,41.121,0,0,1-4.126-7.1,41.69,41.69,0,0,1-2.665-7.757,43.1,43.1,0,0,1-1.092-8.121,42.223,42.223,0,0,1,2.626-16.1,41.912,41.912,0,0,1,14.715-19.308,42.08,42.08,0,0,1,7.1-4.127,41.442,41.442,0,0,1,7.757-2.649,40.716,40.716,0,0,1,8.122-1.094A41.874,41.874,0,0,1,286.1,210.944,41.635,41.635,0,0,1,288.752,218.707Zm0,0" transform="translate(4229.741 707.932)" fill="#051d40"/></g><g transform="translate(-3793.324 -227.163)" opacity="0.02"><g transform="translate(4102.324 500.5)" clip-path="url(#a)"><path d="M380.953,102.2c-135.718,0-246.117,110.4-246.117,246.117,0,135.736,110.4,246.135,246.117,246.135a247.442,247.442,0,0,0,76.375-12.1,69.061,69.061,0,1,1,113.483-77.594,245.271,245.271,0,0,0,56.165-156.325C626.976,212.6,516.577,102.2,380.953,102.2Zm0,396.821c-83.128,0-150.778-67.665-150.778-150.7,0-83.016,67.65-150.774,150.778-150.774,83.146,0,150.793,67.646,150.793,150.774C531.746,431.462,463.987,499.02,380.953,499.02Zm0,0" transform="translate(-134.779 -102.199)" fill="#051d40"/></g><path d="M288.752,218.707a40.45,40.45,0,0,1,1.094,8.122,42.161,42.161,0,0,1-.509,8.2,41.329,41.329,0,0,1-2.1,7.921,42.366,42.366,0,0,1-8.58,13.874,41.264,41.264,0,0,1-6.155,5.421,40.773,40.773,0,0,1-7.079,4.125,42.13,42.13,0,0,1-7.762,2.665,43.867,43.867,0,0,1-8.122,1.1,42.086,42.086,0,0,1-23.473-6.225,41.616,41.616,0,0,1-11.939-11.116,41.121,41.121,0,0,1-4.126-7.1,41.69,41.69,0,0,1-2.665-7.757,43.1,43.1,0,0,1-1.092-8.121,42.223,42.223,0,0,1,2.626-16.1,41.912,41.912,0,0,1,14.715-19.308,42.08,42.08,0,0,1,7.1-4.127,41.442,41.442,0,0,1,7.757-2.649,40.716,40.716,0,0,1,8.122-1.094A41.874,41.874,0,0,1,286.1,210.944,41.635,41.635,0,0,1,288.752,218.707Zm0,0" transform="translate(4229.741 707.932)" fill="#051d40"/></g></svg>