<svg xmlns="http://www.w3.org/2000/svg" xmlns:xlink="http://www.w3.org/1999/xlink" width="142.332" height="142.332" viewBox="0 0 142.332 142.332"><defs><clipPath id="a"><path d="M134.824,102.2H277.156V244.531H134.824Zm0,0" transform="translate(-134.824 -102.199)"/></clipPath></defs><g clip-path="url(#a)"><path d="M206.23,102.2a71.4,71.4,0,1,0,22.155,139.282A20.033,20.033,0,1,1,261.3,218.972,71.381,71.381,0,0,0,206.23,102.2Zm0,115.11a43.726,43.726,0,1,1,43.742-43.716A43.79,43.79,0,0,1,206.23,217.309Zm0,0" transform="translate(-134.82 -102.199)" fill="#051d40"/></g><path d="M230.162,195.842a11.745,11.745,0,0,1,.317,2.356,12.231,12.231,0,0,1-.148,2.378,12,12,0,0,1-.609,2.3,12.288,12.288,0,0,1-2.489,4.024,11.983,11.983,0,0,1-1.785,1.573,11.828,11.828,0,0,1-2.054,1.2,12.214,12.214,0,0,1-2.251.773,12.726,12.726,0,0,1-2.356.318,12.209,12.209,0,0,1-6.809-1.806,12.073,12.073,0,0,1-3.463-3.225,11.931,11.931,0,0,1-1.2-2.06,12.076,12.076,0,0,1-.773-2.25,12.5,12.5,0,0,1-.317-2.356,11.779,11.779,0,0,1,.153-2.372,12.153,12.153,0,0,1,4.877-7.9,12.213,12.213,0,0,1,2.059-1.2,12.015,12.015,0,0,1,2.25-.768,11.8,11.8,0,0,1,2.356-.317,12.147,12.147,0,0,1,11.469,7.084A12.081,12.081,0,0,1,230.162,195.842Zm0,0" transform="translate(-109.439 -72.227)" fill="#051d40"/></svg>